<svg id="Слой_1" data-name="Слой 1" xmlns="http://www.w3.org/2000/svg" viewBox="0 0 180 180"><defs><style>.cls-1,.cls-2{fill:#0071bc;}.cls-2{opacity:0.8;}.cls-3,.cls-5{fill:none;stroke:#0071bc;stroke-miterlimit:10;}.cls-3{stroke-width:2px;opacity:0.6;}.cls-4{fill:#fff;}.cls-5{stroke-linecap:round;stroke-width:3px;}</style></defs><title>icons</title><path class="cls-1" d="M60.06,132.47h-7.8v-1.64h2.9V120.11h-2.9v-1.46a4.74,4.74,0,0,0,2.42-.47,2.09,2.09,0,0,0,.88-1.76h1.66v14.41h2.84Z"/><path class="cls-1" d="M73.3,127H71.4v5.5H69.34V127H62.27v-2.26l7.16-8.24h2v8.78h1.9Zm-4-1.72V119L64,125.25Z"/><path class="cls-1" d="M92.48,135.34H90.6v-2.91H82.69v2.91H80.81v-4.59h.8a15.37,15.37,0,0,0,1.67-4.38,25.39,25.39,0,0,0,.65-5.9h7.36v10.28h1.19Zm-3.21-4.59v-8.59H85.83a23.33,23.33,0,0,1-.74,4.91,13.74,13.74,0,0,1-1.49,3.68Z"/><path class="cls-1" d="M103.94,132.47h-2v-5.41H96.49v5.41h-2v-12h2v4.85h5.43v-4.85h2Z"/><path class="cls-1" d="M112.06,132.75a6,6,0,0,1-4.45-1.62,6.27,6.27,0,0,1-1.58-4.59,6.81,6.81,0,0,1,1.53-4.67,5.11,5.11,0,0,1,4-1.74,5.55,5.55,0,0,1,2,.33,3.87,3.87,0,0,1,1.5,1,4.51,4.51,0,0,1,1,1.68,7.45,7.45,0,0,1,.34,2.43v1.1h-8.31a4.49,4.49,0,0,0,1,3.2A3.84,3.84,0,0,0,112,131a5.72,5.72,0,0,0,1.31-.15,6.74,6.74,0,0,0,1.15-.38,9.44,9.44,0,0,0,.92-.48,5.57,5.57,0,0,0,.63-.44h.12v2.21l-.88.34c-.36.14-.67.25-1,.33s-.75.19-1.07.25A6.72,6.72,0,0,1,112.06,132.75Zm2.37-7.62a5.62,5.62,0,0,0-.2-1.41,3,3,0,0,0-.49-1,2.21,2.21,0,0,0-.91-.68,4,4,0,0,0-2.74,0,3.32,3.32,0,0,0-1,.7,3.35,3.35,0,0,0-.69,1.05,4.33,4.33,0,0,0-.3,1.34Z"/><path class="cls-1" d="M127.91,132.47h-2v-9l-5.65,9h-1.83v-12h2v8.81l5.59-8.81h1.89ZM127,114.89a5.84,5.84,0,0,1-.22,1.68,3.68,3.68,0,0,1-.65,1.28,3.14,3.14,0,0,1-1.09.85,3.74,3.74,0,0,1-1.57.28,3.68,3.68,0,0,1-1.54-.29,3.09,3.09,0,0,1-1.11-.84,3.6,3.6,0,0,1-.67-1.29,5.82,5.82,0,0,1-.22-1.67h1.74a3.72,3.72,0,0,0,.45,2.09,1.72,1.72,0,0,0,2.67,0,3.54,3.54,0,0,0,.47-2.1Z"/><path class="cls-1" d="M58.82,145a3.48,3.48,0,0,1,.79,1.31,5.43,5.43,0,0,1,.28,1.84,5.34,5.34,0,0,1-.32,1.86,4.14,4.14,0,0,1-.87,1.44,3.85,3.85,0,0,1-1.24.92,3.55,3.55,0,0,1-1.49.31,3.91,3.91,0,0,1-1.51-.29,2.92,2.92,0,0,1-1.16-.88,4.76,4.76,0,0,1-.91-1.86,10.76,10.76,0,0,1-.3-2.76c0-.39,0-.79,0-1.19a12.87,12.87,0,0,1,.23-1.45,7.38,7.38,0,0,1,.42-1.4,3.44,3.44,0,0,1,.69-1.09,4.06,4.06,0,0,1,1.45-.92,8.75,8.75,0,0,1,2.37-.47c.35,0,.73-.07,1.12-.09l.91-.07v1.35l-.86.06-1.06.08a10.55,10.55,0,0,0-1.65.28,2.63,2.63,0,0,0-1.29.67,2.3,2.3,0,0,0-.53,1,6.85,6.85,0,0,0-.27,1.39,6.58,6.58,0,0,1,1.24-.7,3.53,3.53,0,0,1,1.42-.29,3.85,3.85,0,0,1,1.36.24A3.11,3.11,0,0,1,58.82,145Zm-.42,3.23a3.22,3.22,0,0,0-.63-2.13,2.17,2.17,0,0,0-1.78-.74,3.7,3.7,0,0,0-1.23.21,5.26,5.26,0,0,0-1.11.56c0,.13,0,.29,0,.47s0,.34,0,.48a9,9,0,0,0,.22,2.22,3.43,3.43,0,0,0,.61,1.33,2.06,2.06,0,0,0,.74.61,2.15,2.15,0,0,0,.85.16,2,2,0,0,0,1.75-.85A3.8,3.8,0,0,0,58.4,148.26Z"/><path class="cls-1" d="M65.22,152.67A4.31,4.31,0,0,1,62,151.49a4.55,4.55,0,0,1-1.15-3.34,4.94,4.94,0,0,1,1.11-3.39,3.73,3.73,0,0,1,2.93-1.26,4.16,4.16,0,0,1,1.43.23,2.89,2.89,0,0,1,1.1.74,3.43,3.43,0,0,1,.72,1.22,5.63,5.63,0,0,1,.25,1.77v.79H62.32a3.24,3.24,0,0,0,.76,2.33,2.8,2.8,0,0,0,2.12.81,4.26,4.26,0,0,0,1-.11A4.6,4.6,0,0,0,67,151a5.77,5.77,0,0,0,.67-.35,3.28,3.28,0,0,0,.46-.32h.08v1.6l-.64.26a7.21,7.21,0,0,1-.69.24l-.77.18A5.35,5.35,0,0,1,65.22,152.67Zm1.72-5.54a4.11,4.11,0,0,0-.14-1,2.37,2.37,0,0,0-.36-.73,1.71,1.71,0,0,0-.66-.5,2.64,2.64,0,0,0-1-.17,2.72,2.72,0,0,0-1,.17,2.42,2.42,0,0,0-1.24,1.28,3.07,3.07,0,0,0-.22,1Z"/><path class="cls-1" d="M73.32,152.66a4.61,4.61,0,0,1-1.65-.28,3.28,3.28,0,0,1-1.29-.84,3.64,3.64,0,0,1-.83-1.41,6.14,6.14,0,0,1-.3-2,5.64,5.64,0,0,1,.31-2,4.23,4.23,0,0,1,.82-1.41,3.48,3.48,0,0,1,1.29-.88,4.48,4.48,0,0,1,1.65-.3,4.63,4.63,0,0,1,1.39.2,7.77,7.77,0,0,1,1.19.47v1.65h-.09c-.1-.09-.24-.19-.4-.31a5.05,5.05,0,0,0-.6-.35,3.51,3.51,0,0,0-.72-.27,2.81,2.81,0,0,0-.79-.12,2.26,2.26,0,0,0-1.84.86,4.66,4.66,0,0,0,0,4.85,2.21,2.21,0,0,0,1.86.87,3.18,3.18,0,0,0,1.36-.3,4.18,4.18,0,0,0,1.15-.76h.09V152l-.55.25a3.27,3.27,0,0,1-.59.21,6.12,6.12,0,0,1-.68.17A3.89,3.89,0,0,1,73.32,152.66Z"/><path class="cls-1" d="M84.12,152.47H82.66V145h-4v7.47H77.23v-8.73h6.89Z"/><path class="cls-1" d="M93,152.47H91.54V145h-3c0,.44,0,.85-.05,1.25s0,.76,0,1.08a20.17,20.17,0,0,1-.16,2.06,7.08,7.08,0,0,1-.28,1.32,3.08,3.08,0,0,1-.38.81,3.29,3.29,0,0,1-.46.52,1.67,1.67,0,0,1-.58.35,1.83,1.83,0,0,1-.68.12h-.6v-1.29h.33a1.5,1.5,0,0,0,.37,0,.75.75,0,0,0,.32-.21,2.5,2.5,0,0,0,.57-1.34,20,20,0,0,0,.26-2.67c0-.43,0-.94.06-1.52s0-1.14.05-1.67H93Z"/><path class="cls-1" d="M100,151.54l-.48.37a3.65,3.65,0,0,1-.59.38,4.59,4.59,0,0,1-.75.31,3.8,3.8,0,0,1-1,.11,2.52,2.52,0,0,1-1-.21,2.36,2.36,0,0,1-.85-.57,2.48,2.48,0,0,1-.57-.88,3,3,0,0,1-.21-1.12,2.91,2.91,0,0,1,.39-1.54,2.57,2.57,0,0,1,1.21-1,5.9,5.9,0,0,1,1.73-.46c.67-.09,1.39-.15,2.16-.2v-.28a1.81,1.81,0,0,0-.16-.83,1.16,1.16,0,0,0-.44-.49,1.66,1.66,0,0,0-.68-.24,5.59,5.59,0,0,0-2,.1,8.36,8.36,0,0,0-1.37.44h-.09v-1.49a11.08,11.08,0,0,1,1.17-.26,8.46,8.46,0,0,1,1.5-.14,7.12,7.12,0,0,1,1.51.14,2.82,2.82,0,0,1,1.11.51,2.11,2.11,0,0,1,.71.93,3.57,3.57,0,0,1,.24,1.39v6H100Zm0-1.22V147.9l-1.33.12a8.76,8.76,0,0,0-1.29.23,2.5,2.5,0,0,0-1,.56,1.37,1.37,0,0,0-.38,1,1.44,1.44,0,0,0,.42,1.13,1.75,1.75,0,0,0,1.23.39,2.61,2.61,0,0,0,1.26-.3A5.46,5.46,0,0,0,100,150.32Z"/><path class="cls-1" d="M109.91,145h-3v7.44h-1.47V145h-3v-1.29h7.41Z"/><path class="cls-1" d="M117.89,152.47h-1.47v-3.93h-4v3.93H111v-8.73h1.47v3.53h4v-3.53h1.47Z"/><path class="cls-1" d="M127.19,148.11a5,5,0,0,1-1.07,3.4,3.93,3.93,0,0,1-5.69,0,5.09,5.09,0,0,1-1-3.36,5,5,0,0,1,1.07-3.4,3.93,3.93,0,0,1,5.66,0A5,5,0,0,1,127.19,148.11Zm-1.52,0a4.21,4.21,0,0,0-.62-2.52,2.05,2.05,0,0,0-1.75-.83,2.08,2.08,0,0,0-1.77.83,5.35,5.35,0,0,0,0,5,2.26,2.26,0,0,0,3.52,0A4.18,4.18,0,0,0,125.67,148.11Z"/><rect class="cls-2" x="45" y="70.03" width="90" height="23.18"/><rect class="cls-3" x="40" y="41.83" width="100" height="66.5"/><path class="cls-1" d="M50.89,57.18H48.05v-.6H49.1V52.65H48.05v-.53a1.8,1.8,0,0,0,.88-.17.76.76,0,0,0,.32-.65h.6v5.28h1Z"/><path class="cls-1" d="M64.58,57.18H61v-.82c.26-.25.51-.48.73-.71s.46-.46.68-.7a7.5,7.5,0,0,0,.9-1.18,1.91,1.91,0,0,0,.24-.92,1.18,1.18,0,0,0-.07-.43,1,1,0,0,0-.21-.31,1.09,1.09,0,0,0-.32-.17,1.23,1.23,0,0,0-.39-.06,2,2,0,0,0-.42,0l-.41.13-.32.16-.24.17h0v-.84a3.8,3.8,0,0,1,.67-.24,3.5,3.5,0,0,1,.82-.11,1.78,1.78,0,0,1,1.27.43,1.54,1.54,0,0,1,.46,1.18,2.2,2.2,0,0,1-.08.64A2.27,2.27,0,0,1,64,54a3.31,3.31,0,0,1-.35.51,5,5,0,0,1-.43.5c-.24.27-.51.54-.81.83l-.73.69h2.86Z"/><path class="cls-1" d="M76,51.88a2.18,2.18,0,0,0-.43,0,3.24,3.24,0,0,0-.41.13l-.33.17-.24.16h0v-.83a3,3,0,0,1,.69-.25A3.11,3.11,0,0,1,76,51.2a2.42,2.42,0,0,1,.69.08,1.62,1.62,0,0,1,.53.25,1.29,1.29,0,0,1,.39.45,1.39,1.39,0,0,1,.13.63,1.26,1.26,0,0,1-.31.85,1.5,1.5,0,0,1-.76.47v0a1.72,1.72,0,0,1,.39.12,1.4,1.4,0,0,1,.39.26,1.21,1.21,0,0,1,.29.43,1.61,1.61,0,0,1,.11.65,1.9,1.9,0,0,1-.13.73,1.93,1.93,0,0,1-.38.59,1.73,1.73,0,0,1-.61.41,2.35,2.35,0,0,1-.82.13,3.69,3.69,0,0,1-.87-.1,3.32,3.32,0,0,1-.72-.26v-.83h.05a3.33,3.33,0,0,0,.66.35,2.26,2.26,0,0,0,.83.16,1.59,1.59,0,0,0,.48-.07,1,1,0,0,0,.4-.25,1.15,1.15,0,0,0,.24-.39,1.54,1.54,0,0,0,.08-.52,1.33,1.33,0,0,0-.09-.53.82.82,0,0,0-.26-.32,1,1,0,0,0-.38-.16,2.54,2.54,0,0,0-.49-.05h-.33v-.65h.25a1.42,1.42,0,0,0,.86-.25.88.88,0,0,0,.33-.74.92.92,0,0,0-.08-.38.76.76,0,0,0-.22-.25.81.81,0,0,0-.33-.14A1.58,1.58,0,0,0,76,51.88Z"/><path class="cls-1" d="M91.54,55.17h-.69v2H90.1v-2H87.53v-.83l2.6-3h.72v3.22h.69Zm-1.44-.63v-2.3l-2,2.3Z"/><path class="cls-1" d="M104.72,55.32a2.2,2.2,0,0,1-.13.78,2,2,0,0,1-.38.63,1.66,1.66,0,0,1-.61.42,2.14,2.14,0,0,1-.82.15,3.75,3.75,0,0,1-.82-.09,3,3,0,0,1-.7-.24v-.83h0l.26.15a3.17,3.17,0,0,0,.37.16l.42.13a1.91,1.91,0,0,0,.43,0,1.44,1.44,0,0,0,.46-.08.88.88,0,0,0,.38-.28,1.11,1.11,0,0,0,.22-.4,1.82,1.82,0,0,0,.08-.55,1.43,1.43,0,0,0-.08-.51.9.9,0,0,0-.25-.33.94.94,0,0,0-.41-.21,2.32,2.32,0,0,0-.55-.06,3.35,3.35,0,0,0-.63,0l-.51.09v-3h3.19V52h-2.44v1.56l.28,0h.25a3.24,3.24,0,0,1,.75.07,1.75,1.75,0,0,1,.6.29,1.47,1.47,0,0,1,.44.55A2.12,2.12,0,0,1,104.72,55.32Z"/><path class="cls-1" d="M119,55.19a2.09,2.09,0,0,1-.58,1.52,2.16,2.16,0,0,1-1.6.59,2.79,2.79,0,0,1-.9-.14,1.86,1.86,0,0,1-.68-.44,2.33,2.33,0,0,1-.51-.87,4.41,4.41,0,0,1-.17-1.28,5.15,5.15,0,0,1,.16-1.37,2.88,2.88,0,0,1,.54-1.06,2.32,2.32,0,0,1,.93-.68,3.3,3.3,0,0,1,1.36-.25,3.64,3.64,0,0,1,.57,0l.39.06v1.15h-.1l-.34-.12a2.15,2.15,0,0,0-.53-.06,1.46,1.46,0,0,0-1.06.36,1.71,1.71,0,0,0-.46,1,3.14,3.14,0,0,1,.58-.29,1.78,1.78,0,0,1,.67-.11,1.91,1.91,0,0,1,.59.08,1.74,1.74,0,0,1,.49.25,1.56,1.56,0,0,1,.48.61A2.41,2.41,0,0,1,119,55.19Zm-1.69.88a1.17,1.17,0,0,0,.17-.31,1.57,1.57,0,0,0,.06-.5,1.26,1.26,0,0,0-.07-.47.64.64,0,0,0-.2-.3.73.73,0,0,0-.29-.15,1.34,1.34,0,0,0-.35,0,1.15,1.15,0,0,0-.31,0,1.32,1.32,0,0,0-.3.1s0,.07,0,.13v.23a3,3,0,0,0,.09.81,1.1,1.1,0,0,0,.22.46.44.44,0,0,0,.23.18.66.66,0,0,0,.27.06.65.65,0,0,0,.26-.06A.58.58,0,0,0,117.31,56.07Z"/><path class="cls-1" d="M132.47,52.48,130,57.18h-1.63l2.6-4.75H128.2V51.32h4.27Z"/><path class="cls-1" d="M49.35,68.4a2.22,2.22,0,0,1-.79-.13,1.65,1.65,0,0,1-1-.93,2,2,0,0,1-.12-.69,1.61,1.61,0,0,1,.25-.88,1.74,1.74,0,0,1,.73-.63v0a1.87,1.87,0,0,1-.64-.55,1.35,1.35,0,0,1-.2-.75,1.42,1.42,0,0,1,.49-1.1,2.08,2.08,0,0,1,2.53,0,1.36,1.36,0,0,1,.48,1.07,1.5,1.5,0,0,1-.23.78,1.56,1.56,0,0,1-.66.61v0a2,2,0,0,1,.77.58,1.38,1.38,0,0,1,.27.88,1.67,1.67,0,0,1-.55,1.26A1.89,1.89,0,0,1,49.35,68.4Zm1.09-1.69a1,1,0,0,0-.14-.58,1.5,1.5,0,0,0-.54-.43l-.35-.16-.5-.21a1.6,1.6,0,0,0-.5.54,1.53,1.53,0,0,0-.17.72,1.27,1.27,0,0,0,.32.88,1,1,0,0,0,.8.34,1.06,1.06,0,0,0,.79-.29A1.09,1.09,0,0,0,50.44,66.71Zm-.11-2.94a.89.89,0,0,0-.26-.66,1,1,0,0,0-.72-.26,1,1,0,0,0-.7.24.79.79,0,0,0-.27.63.82.82,0,0,0,.14.5,1.34,1.34,0,0,0,.41.36l.37.18.45.19a1.48,1.48,0,0,0,.46-.54A1.62,1.62,0,0,0,50.33,63.77Z"/><path class="cls-1" d="M56.91,64.31a2.45,2.45,0,0,1,.14-.83,2,2,0,0,1,.41-.64,1.69,1.69,0,0,1,.59-.41,2,2,0,0,1,.71-.14,1.85,1.85,0,0,1,.72.13,1.61,1.61,0,0,1,.57.39,2.24,2.24,0,0,1,.47.85A4.49,4.49,0,0,1,60.68,65a5.56,5.56,0,0,1-.16,1.38A3,3,0,0,1,60,67.44a2.17,2.17,0,0,1-.81.7,2.52,2.52,0,0,1-1.16.24,1.94,1.94,0,0,1-.33,0,1.61,1.61,0,0,1-.33-.06v-.75h0a1.61,1.61,0,0,0,.31.1,1.42,1.42,0,0,0,.42,0,1.52,1.52,0,0,0,1.2-.5,2.44,2.44,0,0,0,.5-1.46,2.15,2.15,0,0,1-.6.31,1.74,1.74,0,0,1-.61.1,2.12,2.12,0,0,1-.59-.07,1.71,1.71,0,0,1-.54-.27,1.48,1.48,0,0,1-.47-.61A2.18,2.18,0,0,1,56.91,64.31Zm3,.5a3.7,3.7,0,0,0-.11-1,1.65,1.65,0,0,0-.3-.58.91.91,0,0,0-.74-.33.91.91,0,0,0-.76.35,1.53,1.53,0,0,0-.29,1,1.75,1.75,0,0,0,.09.61,1,1,0,0,0,.31.41.84.84,0,0,0,.34.17,2.35,2.35,0,0,0,.4,0,1.9,1.9,0,0,0,.54-.09,1.79,1.79,0,0,0,.5-.24s0-.09,0-.15S59.9,64.89,59.9,64.81Z"/><path class="cls-1" d="M69.84,68.27H67v-.6h1V63.74H67V63.2a1.69,1.69,0,0,0,.88-.17.77.77,0,0,0,.32-.64h.6v5.28h1Z"/><path class="cls-1" d="M74.54,65.33a4.57,4.57,0,0,1-.46,2.32,1.7,1.7,0,0,1-2.81,0,6.15,6.15,0,0,1,0-4.62,1.54,1.54,0,0,1,1.41-.73,1.51,1.51,0,0,1,1.41.76A4.56,4.56,0,0,1,74.54,65.33Zm-1,1.79a3.06,3.06,0,0,0,.16-.73c0-.3,0-.65,0-1.06s0-.75,0-1a2.61,2.61,0,0,0-.17-.74,1.06,1.06,0,0,0-.32-.46.88.88,0,0,0-.53-.15.91.91,0,0,0-.54.15,1.07,1.07,0,0,0-.33.46,3.35,3.35,0,0,0-.16.76c0,.31,0,.65,0,1a10,10,0,0,0,0,1,2.69,2.69,0,0,0,.16.74,1,1,0,0,0,.32.47.92.92,0,0,0,.55.16.84.84,0,0,0,.53-.16A1,1,0,0,0,73.54,67.12Z"/><path class="cls-1" d="M83.69,68.27H80.86v-.6h1V63.74h-1V63.2a1.71,1.71,0,0,0,.88-.17.76.76,0,0,0,.31-.64h.61v5.28h1Z"/><path class="cls-1" d="M88.06,68.27H85.22v-.6h1.06V63.74H85.22V63.2A1.67,1.67,0,0,0,86.1,63a.74.74,0,0,0,.32-.64H87v5.28h1Z"/><path class="cls-1" d="M97.54,68.27H94.7v-.6h1.06V63.74H94.7V63.2a1.69,1.69,0,0,0,.88-.17.74.74,0,0,0,.32-.64h.61v5.28h1Z"/><path class="cls-1" d="M102.2,68.27H98.61v-.83l.73-.7c.23-.23.45-.46.67-.71a6.36,6.36,0,0,0,.91-1.18,1.88,1.88,0,0,0,.24-.91,1.11,1.11,0,0,0-.07-.43.77.77,0,0,0-.21-.31.92.92,0,0,0-.32-.18,1.23,1.23,0,0,0-.39-.06,1.52,1.52,0,0,0-.42.06,2.46,2.46,0,0,0-.41.13,1.91,1.91,0,0,0-.32.16l-.24.16h0v-.83a4,4,0,0,1,.68-.24,3,3,0,0,1,.81-.12,1.79,1.79,0,0,1,1.28.44A1.53,1.53,0,0,1,102,63.9a2.47,2.47,0,0,1-.08.63,2.18,2.18,0,0,1-.22.54,3.87,3.87,0,0,1-.35.51c-.14.17-.28.33-.43.49s-.52.55-.82.84-.54.52-.72.68h2.86Z"/><path class="cls-1" d="M112.27,68.27h-3.84v-1h1.22V64.15h-1.22v-1a3.08,3.08,0,0,0,.53,0,1.41,1.41,0,0,0,.43-.11.79.79,0,0,0,.29-.25.82.82,0,0,0,.12-.4h1.27v4.85h1.2Z"/><path class="cls-1" d="M117.48,66.49a1.94,1.94,0,0,1-.16.78,1.73,1.73,0,0,1-.46.61,2.41,2.41,0,0,1-.73.38,3.3,3.3,0,0,1-1,.13,5,5,0,0,1-1.17-.12,4.11,4.11,0,0,1-.79-.25V66.75h.14a4.35,4.35,0,0,0,.75.35,2.43,2.43,0,0,0,.79.15,2.6,2.6,0,0,0,.46,0,1,1,0,0,0,.42-.16.81.81,0,0,0,.21-.24.9.9,0,0,0,.08-.41.66.66,0,0,0-.11-.4.67.67,0,0,0-.31-.2,1.38,1.38,0,0,0-.44-.08h-.72v-1h.24a3.7,3.7,0,0,0,.48,0,1.25,1.25,0,0,0,.38-.09.58.58,0,0,0,.25-.21.74.74,0,0,0,.08-.36.43.43,0,0,0-.08-.29.49.49,0,0,0-.2-.18.8.8,0,0,0-.33-.09l-.32,0a2.28,2.28,0,0,0-.44.05l-.43.13-.34.17-.27.15h-.12V62.65a5.73,5.73,0,0,1,.81-.25,4.55,4.55,0,0,1,1-.12,3.9,3.9,0,0,1,.9.09,2,2,0,0,1,.65.27,1.19,1.19,0,0,1,.45.47,1.34,1.34,0,0,1,.15.64,1.43,1.43,0,0,1-.29.88,1.29,1.29,0,0,1-.76.48v.06a2.08,2.08,0,0,1,.41.11,1.28,1.28,0,0,1,.67.63A1.34,1.34,0,0,1,117.48,66.49Z"/><path class="cls-1" d="M127.25,68.27h-3.84v-1h1.22V64.15h-1.22v-1a3.08,3.08,0,0,0,.53,0,1.41,1.41,0,0,0,.43-.11.79.79,0,0,0,.29-.25.82.82,0,0,0,.12-.4h1.27v4.85h1.2Z"/><path class="cls-1" d="M132.67,66.9h-.79v1.38h-1.41V66.9h-2.55V65.81l2.51-3.4h1.45v3.44h.79Zm-2.2-1.05v-2l-1.47,2Z"/><path class="cls-4" d="M50.89,79.35H48.05v-.6H49.1V74.83H48.05v-.54a1.8,1.8,0,0,0,.88-.17.76.76,0,0,0,.32-.65h.6v5.28h1Z"/><path class="cls-4" d="M55.48,77.49a2.2,2.2,0,0,1-.13.78,1.89,1.89,0,0,1-.38.63,1.66,1.66,0,0,1-.61.42,2.14,2.14,0,0,1-.82.16,3.75,3.75,0,0,1-.82-.1,3,3,0,0,1-.7-.24v-.83h0l.26.15a3.17,3.17,0,0,0,.37.16,3.81,3.81,0,0,0,.42.13,1.91,1.91,0,0,0,.43,0,1.21,1.21,0,0,0,.46-.08.94.94,0,0,0,.38-.27,1.16,1.16,0,0,0,.22-.41,1.79,1.79,0,0,0,0-1.06.9.9,0,0,0-.25-.33.94.94,0,0,0-.41-.21,2.23,2.23,0,0,0-.54-.06,4.48,4.48,0,0,0-.64,0l-.51.09v-3h3.19v.69H53v1.56l.28,0h.25a3.24,3.24,0,0,1,.75.07,1.67,1.67,0,0,1,.6.29,1.47,1.47,0,0,1,.44.55A2.16,2.16,0,0,1,55.48,77.49Z"/><path class="cls-4" d="M63.26,79.35H60.43v-.6h1V74.83h-1v-.54a1.82,1.82,0,0,0,.88-.17.79.79,0,0,0,.32-.65h.6v5.28h1Z"/><path class="cls-4" d="M68,77.45a2.32,2.32,0,0,1-.15.84,1.84,1.84,0,0,1-.4.63,2,2,0,0,1-.59.42,1.8,1.8,0,0,1-.71.14,1.89,1.89,0,0,1-.72-.14,1.69,1.69,0,0,1-.57-.4,2.22,2.22,0,0,1-.47-.85,4.43,4.43,0,0,1-.17-1.31,5.34,5.34,0,0,1,.16-1.38,3,3,0,0,1,.48-1.07,2.15,2.15,0,0,1,.82-.7,2.47,2.47,0,0,1,1.15-.25l.36,0a1.13,1.13,0,0,1,.3.06v.76h0a1.21,1.21,0,0,0-.31-.11,1.42,1.42,0,0,0-.42,0,1.51,1.51,0,0,0-1.18.49A2.47,2.47,0,0,0,65,76a2.61,2.61,0,0,1,.57-.3,1.69,1.69,0,0,1,.64-.11,2.15,2.15,0,0,1,.6.07,1.66,1.66,0,0,1,1,.89A2.38,2.38,0,0,1,68,77.45Zm-.8,0a1.72,1.72,0,0,0-.09-.6,1,1,0,0,0-.31-.42.84.84,0,0,0-.34-.17,2.58,2.58,0,0,0-.4,0,1.6,1.6,0,0,0-.53.09,2,2,0,0,0-.51.24c0,.06,0,.11,0,.16V77a3.31,3.31,0,0,0,.12,1,1.51,1.51,0,0,0,.29.57,1,1,0,0,0,.35.26,1,1,0,0,0,.38.07.94.94,0,0,0,.76-.34A1.47,1.47,0,0,0,67.22,77.48Z"/><path class="cls-4" d="M75.64,79.35H72.8v-.6h1.06V74.83H72.8v-.54a1.8,1.8,0,0,0,.88-.17.76.76,0,0,0,.32-.65h.61v5.28h1Z"/><path class="cls-4" d="M80.36,74.37l-2.51,5H77l2.66-5.17h-3v-.69h3.69Z"/><path class="cls-4" d="M88,79.35H85.18v-.6h1V74.83h-1v-.54a1.8,1.8,0,0,0,.88-.17.79.79,0,0,0,.32-.65H87v5.28h1Z"/><path class="cls-4" d="M90.84,79.49a2.41,2.41,0,0,1-.78-.13,1.66,1.66,0,0,1-.61-.38,1.45,1.45,0,0,1-.37-.56,1.73,1.73,0,0,1-.13-.69,1.6,1.6,0,0,1,.25-.87,1.76,1.76,0,0,1,.73-.64v0a2,2,0,0,1-.63-.55,1.28,1.28,0,0,1-.21-.75,1.41,1.41,0,0,1,.5-1.1,1.79,1.79,0,0,1,1.25-.44,1.88,1.88,0,0,1,1.28.42,1.34,1.34,0,0,1,.47,1.07,1.54,1.54,0,0,1-.22.78,1.6,1.6,0,0,1-.66.6v0a2.07,2.07,0,0,1,.77.59,1.44,1.44,0,0,1,.26.88A1.66,1.66,0,0,1,92.2,79,1.9,1.9,0,0,1,90.84,79.49Zm1.1-1.7a1,1,0,0,0-.14-.57,1.54,1.54,0,0,0-.55-.43,2.3,2.3,0,0,0-.35-.17l-.5-.2a1.44,1.44,0,0,0-.66,1.26,1.24,1.24,0,0,0,.31.87,1.14,1.14,0,0,0,1.59,0A1.08,1.08,0,0,0,91.94,77.79Zm-.11-2.93a.91.91,0,0,0-.26-.66,1,1,0,0,0-.73-.26,1,1,0,0,0-.7.23.81.81,0,0,0-.27.64.86.86,0,0,0,.14.49,1.08,1.08,0,0,0,.42.36l.37.19a2.63,2.63,0,0,0,.45.18,1.42,1.42,0,0,0,.46-.54A1.54,1.54,0,0,0,91.83,74.86Z"/><path class="cls-4" d="M100.39,79.35H97.55v-.6h1.06V74.83H97.55v-.54a1.8,1.8,0,0,0,.88-.17.76.76,0,0,0,.32-.65h.61v5.28h1Z"/><path class="cls-4" d="M101.3,75.4a2.41,2.41,0,0,1,.14-.83,2.37,2.37,0,0,1,.4-.65,1.8,1.8,0,0,1,.6-.4,1.78,1.78,0,0,1,.71-.15,1.85,1.85,0,0,1,.72.14,1.61,1.61,0,0,1,.57.39,2.38,2.38,0,0,1,.47.85,4.49,4.49,0,0,1,.16,1.32,5.56,5.56,0,0,1-.16,1.38,3.16,3.16,0,0,1-.48,1.08,2.26,2.26,0,0,1-.81.7,2.52,2.52,0,0,1-1.16.24l-.33,0a1.14,1.14,0,0,1-.33-.07v-.75h0a1.51,1.51,0,0,0,.31.11,1.86,1.86,0,0,0,.42.05,1.49,1.49,0,0,0,1.2-.51,2.41,2.41,0,0,0,.5-1.45,2.46,2.46,0,0,1-.6.31,1.74,1.74,0,0,1-.61.1,2.12,2.12,0,0,1-.59-.07,1.55,1.55,0,0,1-.54-.28,1.42,1.42,0,0,1-.47-.61A2.13,2.13,0,0,1,101.3,75.4Zm3,.5a3.65,3.65,0,0,0-.11-1,1.57,1.57,0,0,0-.3-.58.88.88,0,0,0-.35-.26,1,1,0,0,0-.39-.08.94.94,0,0,0-.76.35,1.56,1.56,0,0,0-.29,1,1.78,1.78,0,0,0,.09.61,1.12,1.12,0,0,0,.31.41.82.82,0,0,0,.34.16,1.64,1.64,0,0,0,.4,0,1.9,1.9,0,0,0,.54-.09,1.53,1.53,0,0,0,.5-.23s0-.09,0-.15S104.29,76,104.29,75.9Z"/><path class="cls-4" d="M113.91,79.35h-4.28V78.4c.37-.29.69-.57,1-.82s.54-.5.76-.73a4.86,4.86,0,0,0,.62-.8,1.5,1.5,0,0,0,.19-.7.79.79,0,0,0-.24-.63,1,1,0,0,0-.68-.22,1.86,1.86,0,0,0-.42,0l-.4.15a2.63,2.63,0,0,0-.34.18l-.21.14h-.11V73.74a3.82,3.82,0,0,1,.76-.24,4.55,4.55,0,0,1,1-.12,2.32,2.32,0,0,1,1.57.46,1.63,1.63,0,0,1,.53,1.31,2.38,2.38,0,0,1-.24,1,4.48,4.48,0,0,1-.8,1.07c-.24.23-.46.44-.69.62l-.48.39h2.47Z"/><path class="cls-4" d="M118.93,76.42a6.49,6.49,0,0,1-.12,1.33,2.5,2.5,0,0,1-.39,1,1.68,1.68,0,0,1-.69.58,2.5,2.5,0,0,1-1,.2,2.47,2.47,0,0,1-1-.2,1.65,1.65,0,0,1-.7-.58,2.8,2.8,0,0,1-.39-1,7.38,7.38,0,0,1,0-2.65,2.62,2.62,0,0,1,.4-1,1.71,1.71,0,0,1,.7-.58,2.67,2.67,0,0,1,1-.19,2.47,2.47,0,0,1,1,.2,1.71,1.71,0,0,1,.69.59,2.62,2.62,0,0,1,.39,1A6.26,6.26,0,0,1,118.93,76.42Zm-1.47,0a4.91,4.91,0,0,0-.17-1.53.63.63,0,0,0-1.2,0,4.58,4.58,0,0,0-.18,1.54,4.53,4.53,0,0,0,.18,1.52.62.62,0,0,0,1.19,0A4.55,4.55,0,0,0,117.46,76.42Z"/><path class="cls-4" d="M127.51,79.35h-4.27V78.4c.36-.29.68-.57,1-.82s.54-.5.76-.73a4.86,4.86,0,0,0,.62-.8,1.5,1.5,0,0,0,.19-.7.79.79,0,0,0-.24-.63,1,1,0,0,0-.68-.22,1.86,1.86,0,0,0-.42,0l-.4.15a2.63,2.63,0,0,0-.34.18l-.21.14h-.11V73.74a3.74,3.74,0,0,1,.77-.24,4.4,4.4,0,0,1,1-.12,2.32,2.32,0,0,1,1.57.46,1.63,1.63,0,0,1,.53,1.31,2.38,2.38,0,0,1-.24,1,4.48,4.48,0,0,1-.8,1.07c-.24.23-.46.44-.69.62l-.48.39h2.47Z"/><path class="cls-4" d="M132.34,79.35H128.5v-1h1.23v-3.1H128.5v-1a4.89,4.89,0,0,0,.54,0,1.1,1.1,0,0,0,.42-.12.65.65,0,0,0,.29-.25.81.81,0,0,0,.12-.39h1.28v4.85h1.19Z"/><path class="cls-4" d="M51.18,90.44H47.59v-.82l.73-.71c.23-.23.46-.46.68-.71A6.68,6.68,0,0,0,49.9,87a1.88,1.88,0,0,0,.24-.91,1.14,1.14,0,0,0-.07-.43.85.85,0,0,0-.21-.31.76.76,0,0,0-.32-.17,1.23,1.23,0,0,0-.39-.06,1.51,1.51,0,0,0-.42,0,2.8,2.8,0,0,0-.41.13,3.18,3.18,0,0,0-.32.16l-.24.16h0v-.83a4.29,4.29,0,0,1,.68-.24,3,3,0,0,1,.82-.11,1.78,1.78,0,0,1,1.27.43,1.53,1.53,0,0,1,.46,1.18,2.47,2.47,0,0,1-.08.63,2.18,2.18,0,0,1-.22.54,3.87,3.87,0,0,1-.35.51c-.13.17-.28.33-.43.5s-.52.54-.82.83l-.72.69h2.86Z"/><path class="cls-4" d="M55.55,90.44H52v-.82l.73-.71c.23-.23.45-.46.67-.71A6.84,6.84,0,0,0,54.27,87a1.88,1.88,0,0,0,.24-.91,1,1,0,0,0-.28-.74.83.83,0,0,0-.32-.17,1.25,1.25,0,0,0-.4-.06,1.6,1.6,0,0,0-.42,0,2.67,2.67,0,0,0-.4.13,3.18,3.18,0,0,0-.32.16l-.25.16h0v-.83a4.12,4.12,0,0,1,.67-.24,3.09,3.09,0,0,1,.82-.11,1.79,1.79,0,0,1,1.28.43,1.57,1.57,0,0,1,.46,1.18,2.47,2.47,0,0,1-.08.63,2.65,2.65,0,0,1-.22.54,5.16,5.16,0,0,1-.35.51l-.43.5c-.25.26-.52.54-.82.83l-.72.69h2.86Z"/><path class="cls-4" d="M63.56,90.44H60v-.82l.73-.71c.23-.23.45-.46.67-.71A6.84,6.84,0,0,0,62.28,87a1.88,1.88,0,0,0,.24-.91,1.14,1.14,0,0,0-.08-.43.85.85,0,0,0-.21-.31.73.73,0,0,0-.31-.17,1.25,1.25,0,0,0-.4-.06,1.6,1.6,0,0,0-.42,0,2.67,2.67,0,0,0-.4.13,3.18,3.18,0,0,0-.32.16l-.25.16h0v-.83a4.12,4.12,0,0,1,.67-.24,3,3,0,0,1,.82-.11,1.8,1.8,0,0,1,1.28.43,1.57,1.57,0,0,1,.46,1.18,2.47,2.47,0,0,1-.08.63,2.65,2.65,0,0,1-.22.54,5.16,5.16,0,0,1-.35.51l-.43.5c-.25.26-.52.54-.82.83l-.72.69h2.86Z"/><path class="cls-4" d="M65.91,85.14a1.63,1.63,0,0,0-.43,0,3.24,3.24,0,0,0-.41.13,2.55,2.55,0,0,0-.33.17l-.24.16h0v-.83a3,3,0,0,1,.69-.25,3.11,3.11,0,0,1,.83-.11,2.42,2.42,0,0,1,.69.08,1.52,1.52,0,0,1,.53.25,1.2,1.2,0,0,1,.39.45,1.39,1.39,0,0,1,.13.63,1.24,1.24,0,0,1-.32.85,1.36,1.36,0,0,1-.75.46v.06a1.72,1.72,0,0,1,.39.12,1.21,1.21,0,0,1,.39.26,1.13,1.13,0,0,1,.29.43,1.58,1.58,0,0,1,.11.65A1.83,1.83,0,0,1,67.31,90a1.66,1.66,0,0,1-.61.4,2.14,2.14,0,0,1-.82.14,3.24,3.24,0,0,1-.87-.11,3.34,3.34,0,0,1-.72-.25v-.83h0a3.35,3.35,0,0,0,.66.34,2.28,2.28,0,0,0,.83.17,1.61,1.61,0,0,0,.48-.08.88.88,0,0,0,.4-.25,1.17,1.17,0,0,0,.24-.38,1.56,1.56,0,0,0,.08-.53,1.31,1.31,0,0,0-.09-.52.75.75,0,0,0-.26-.32,1,1,0,0,0-.39-.17,2.39,2.39,0,0,0-.48,0h-.33v-.65h.25a1.36,1.36,0,0,0,.86-.26.85.85,0,0,0,.33-.73.89.89,0,0,0-.08-.38.67.67,0,0,0-.22-.25.81.81,0,0,0-.33-.14A1.58,1.58,0,0,0,65.91,85.14Z"/><path class="cls-4" d="M75.93,90.44H72.34v-.82l.73-.71c.23-.23.46-.46.68-.71a6.68,6.68,0,0,0,.9-1.18,1.88,1.88,0,0,0,.24-.91,1.14,1.14,0,0,0-.07-.43.85.85,0,0,0-.21-.31.76.76,0,0,0-.32-.17,1.23,1.23,0,0,0-.39-.06,1.51,1.51,0,0,0-.42,0,2.8,2.8,0,0,0-.41.13l-.32.16-.24.16h-.05v-.83a4.29,4.29,0,0,1,.68-.24,3,3,0,0,1,.82-.11,1.78,1.78,0,0,1,1.27.43,1.53,1.53,0,0,1,.46,1.18,2.09,2.09,0,0,1-.08.63,2.18,2.18,0,0,1-.22.54,3.87,3.87,0,0,1-.35.51c-.13.17-.28.33-.43.5s-.51.54-.82.83l-.72.69h2.86Z"/><path class="cls-4" d="M80.45,88.42h-.69v2H79v-2H76.44V87.6l2.6-3h.72v3.21h.69ZM79,87.79V85.5l-2,2.29Z"/><path class="cls-4" d="M88.31,90.44H84.72v-.82l.73-.71c.23-.23.45-.46.67-.71A6.84,6.84,0,0,0,87,87a1.88,1.88,0,0,0,.24-.91,1,1,0,0,0-.28-.74.83.83,0,0,0-.32-.17,1.25,1.25,0,0,0-.4-.06,1.6,1.6,0,0,0-.42,0,2.67,2.67,0,0,0-.4.13l-.32.16-.25.16h0v-.83a4.12,4.12,0,0,1,.67-.24,3.09,3.09,0,0,1,.82-.11,1.79,1.79,0,0,1,1.28.43,1.57,1.57,0,0,1,.46,1.18,2.47,2.47,0,0,1-.08.63,2.65,2.65,0,0,1-.22.54,5.16,5.16,0,0,1-.35.51l-.43.5c-.25.26-.52.54-.82.83l-.72.69h2.86Z"/><path class="cls-4" d="M92.61,88.57a2.22,2.22,0,0,1-.13.79,2,2,0,0,1-.38.63,1.9,1.9,0,0,1-.61.42,2.18,2.18,0,0,1-.82.15,3.75,3.75,0,0,1-.82-.09,2.86,2.86,0,0,1-.7-.24V89.4h0l.26.15c.11,0,.23.11.37.16l.42.12a1.88,1.88,0,0,0,.43,0,1.44,1.44,0,0,0,.46-.08.94.94,0,0,0,.38-.28,1.11,1.11,0,0,0,.22-.4,1.82,1.82,0,0,0,.08-.55,1.23,1.23,0,0,0-.09-.51.68.68,0,0,0-.24-.33.94.94,0,0,0-.41-.21,2.36,2.36,0,0,0-.55-.07,4.46,4.46,0,0,0-.63,0l-.52.1v-3h3.2v.69H90.14v1.55l.28,0h.25a3.25,3.25,0,0,1,.75.08,1.62,1.62,0,0,1,.59.29,1.5,1.5,0,0,1,.45.55A2.11,2.11,0,0,1,92.61,88.57Z"/><path class="cls-4" d="M100.68,90.44H97.09v-.82l.74-.71c.22-.23.45-.46.67-.71A6.68,6.68,0,0,0,99.4,87a1.89,1.89,0,0,0,.25-.91,1.14,1.14,0,0,0-.08-.43.85.85,0,0,0-.21-.31A.76.76,0,0,0,99,85.2a1.23,1.23,0,0,0-.39-.06,1.51,1.51,0,0,0-.42,0,2.8,2.8,0,0,0-.41.13l-.32.16-.24.16h0v-.83a3.8,3.8,0,0,1,.67-.24,3,3,0,0,1,.82-.11,1.78,1.78,0,0,1,1.27.43,1.53,1.53,0,0,1,.46,1.18,2.09,2.09,0,0,1-.08.63,1.86,1.86,0,0,1-.22.54,3.87,3.87,0,0,1-.35.51,6.37,6.37,0,0,1-.43.5c-.24.26-.51.54-.81.83l-.72.69h2.85Z"/><path class="cls-4" d="M105.14,88.54a2.23,2.23,0,0,1-.15.83,1.79,1.79,0,0,1-.4.64,1.76,1.76,0,0,1-.58.41,1.89,1.89,0,0,1-.72.14,1.8,1.8,0,0,1-.71-.13A1.51,1.51,0,0,1,102,90a2.17,2.17,0,0,1-.47-.85,4.23,4.23,0,0,1-.17-1.32,5.9,5.9,0,0,1,.15-1.38,3.49,3.49,0,0,1,.48-1.07,2.18,2.18,0,0,1,.82-.69,2.51,2.51,0,0,1,1.16-.25,2.06,2.06,0,0,1,.36,0,1.33,1.33,0,0,1,.3.06v.75h0a1.62,1.62,0,0,0-.3-.11,2,2,0,0,0-.43,0,1.51,1.51,0,0,0-1.17.5,2.4,2.4,0,0,0-.53,1.46,2.23,2.23,0,0,1,.57-.3,1.87,1.87,0,0,1,.64-.1,2.71,2.71,0,0,1,.6.06,1.71,1.71,0,0,1,.53.28,1.55,1.55,0,0,1,.48.62A2.35,2.35,0,0,1,105.14,88.54Zm-.79,0a1.59,1.59,0,0,0-.1-.61.93.93,0,0,0-.3-.41.76.76,0,0,0-.35-.17,1.67,1.67,0,0,0-.39,0,1.89,1.89,0,0,0-.53.08,2.63,2.63,0,0,0-.51.24,1,1,0,0,0,0,.17,1.15,1.15,0,0,0,0,.2,3.34,3.34,0,0,0,.12,1,1.39,1.39,0,0,0,.3.56.89.89,0,0,0,.34.26,1,1,0,0,0,.39.08,1,1,0,0,0,.76-.34A1.54,1.54,0,0,0,104.35,88.57Z"/><path class="cls-4" d="M113.91,90.44h-4.28v-1c.37-.29.69-.56,1-.82s.54-.5.76-.73a4.85,4.85,0,0,0,.62-.79,1.54,1.54,0,0,0,.19-.71.82.82,0,0,0-.24-.63,1,1,0,0,0-.68-.22,1.42,1.42,0,0,0-.42.06,3.84,3.84,0,0,0-.4.14,1.79,1.79,0,0,0-.34.19l-.21.14h-.11V84.83a3.82,3.82,0,0,1,.76-.24,4.06,4.06,0,0,1,1-.13,2.32,2.32,0,0,1,1.57.47,1.61,1.61,0,0,1,.53,1.3,2.31,2.31,0,0,1-.24,1,4.29,4.29,0,0,1-.8,1.07c-.24.23-.46.44-.69.62s-.38.32-.48.39h2.47Z"/><path class="cls-4" d="M118.87,85.74l-2.47,4.7h-1.63l2.6-4.76H114.6v-1.1h4.27Z"/><path class="cls-4" d="M127.51,90.44h-4.27v-1c.36-.29.68-.56,1-.82s.54-.5.76-.73a4.85,4.85,0,0,0,.62-.79,1.54,1.54,0,0,0,.19-.71.82.82,0,0,0-.24-.63,1,1,0,0,0-.68-.22,1.42,1.42,0,0,0-.42.06,3.84,3.84,0,0,0-.4.14,1.79,1.79,0,0,0-.34.19l-.21.14h-.11V84.83a3.74,3.74,0,0,1,.77-.24,3.93,3.93,0,0,1,1-.13,2.32,2.32,0,0,1,1.57.47,1.61,1.61,0,0,1,.53,1.3,2.31,2.31,0,0,1-.24,1,4.29,4.29,0,0,1-.8,1.07c-.24.23-.46.44-.69.62s-.38.32-.48.39h2.47Z"/><path class="cls-4" d="M132.59,88.81a1.53,1.53,0,0,1-.16.7,1.59,1.59,0,0,1-.45.56,2.23,2.23,0,0,1-.72.37,3.28,3.28,0,0,1-1,.13,3.53,3.53,0,0,1-1-.13,2.22,2.22,0,0,1-.72-.37,1.45,1.45,0,0,1-.41-.55,1.65,1.65,0,0,1-.13-.66,1.28,1.28,0,0,1,.27-.84,2,2,0,0,1,.8-.56v0a1.66,1.66,0,0,1-.72-.62,1.6,1.6,0,0,1-.2-.79,1.4,1.4,0,0,1,.14-.61,1.68,1.68,0,0,1,.42-.51,2.28,2.28,0,0,1,.68-.34,3.48,3.48,0,0,1,1.85,0,2.25,2.25,0,0,1,.66.3,1.41,1.41,0,0,1,.41.47,1.31,1.31,0,0,1,.14.59,1.29,1.29,0,0,1-.24.76,1.83,1.83,0,0,1-.74.56v0a1.77,1.77,0,0,1,.85.62A1.48,1.48,0,0,1,132.59,88.81Zm-1.44.06a.64.64,0,0,0-.13-.44,1.42,1.42,0,0,0-.52-.35l-.32-.14-.38-.15a1.61,1.61,0,0,0-.27.38,1.06,1.06,0,0,0-.12.5.86.86,0,0,0,.26.65,1,1,0,0,0,.68.24l.26,0a1,1,0,0,0,.26-.12.8.8,0,0,0,.2-.21A.62.62,0,0,0,131.15,88.87ZM131,86.1a.62.62,0,0,0-.19-.48.76.76,0,0,0-.53-.18.77.77,0,0,0-.52.16.51.51,0,0,0-.2.4.58.58,0,0,0,.12.38,1.13,1.13,0,0,0,.37.26l.26.12.4.15a1.29,1.29,0,0,0,.22-.39A1.09,1.09,0,0,0,131,86.1Z"/><path class="cls-1" d="M51.18,101.52H47.59v-.82c.26-.24.5-.48.73-.71s.46-.46.68-.7a7.06,7.06,0,0,0,.9-1.18,1.91,1.91,0,0,0,.24-.92,1.09,1.09,0,0,0-.07-.42.77.77,0,0,0-.21-.31.92.92,0,0,0-.32-.18,1.23,1.23,0,0,0-.39-.06,1.52,1.52,0,0,0-.42.06,2,2,0,0,0-.41.13,1.91,1.91,0,0,0-.32.16l-.24.16h0V95.9a2.92,2.92,0,0,1,.68-.24,3.07,3.07,0,0,1,.82-.12,1.78,1.78,0,0,1,1.27.44,1.53,1.53,0,0,1,.46,1.18,2.59,2.59,0,0,1-.08.63,2.55,2.55,0,0,1-.22.54,3.87,3.87,0,0,1-.35.51c-.13.16-.28.33-.43.49s-.52.55-.82.84l-.72.68h2.86Z"/><path class="cls-1" d="M51.8,97.57a2.23,2.23,0,0,1,.14-.83,2,2,0,0,1,.4-.64,1.65,1.65,0,0,1,.59-.41,1.81,1.81,0,0,1,.71-.15,1.9,1.9,0,0,1,.73.14,1.61,1.61,0,0,1,.57.39,2.23,2.23,0,0,1,.46.85,4.46,4.46,0,0,1,.17,1.32,5.56,5.56,0,0,1-.16,1.38,3,3,0,0,1-.48,1.08,2.17,2.17,0,0,1-.81.7,2.52,2.52,0,0,1-1.16.24l-.33,0a1.61,1.61,0,0,1-.33-.06v-.76h0a1,1,0,0,0,.3.11,2,2,0,0,0,.43,0,1.49,1.49,0,0,0,1.2-.51A2.32,2.32,0,0,0,54.76,99a2.24,2.24,0,0,1-.59.31,1.75,1.75,0,0,1-.62.1,2.22,2.22,0,0,1-.59-.07,1.61,1.61,0,0,1-.53-.28,1.45,1.45,0,0,1-.47-.6A2.21,2.21,0,0,1,51.8,97.57Zm3,.5a3.28,3.28,0,0,0-.11-1,1.32,1.32,0,0,0-.3-.58.86.86,0,0,0-.34-.26,1,1,0,0,0-.39-.07,1,1,0,0,0-.77.34,1.56,1.56,0,0,0-.28,1,1.78,1.78,0,0,0,.09.61,1.12,1.12,0,0,0,.31.41.73.73,0,0,0,.33.16,1.65,1.65,0,0,0,.94,0,1.72,1.72,0,0,0,.51-.24.86.86,0,0,1,0-.15Z"/><path class="cls-1" d="M60.4,96.22a2,2,0,0,0-.42,0,3,3,0,0,0-.42.14,1.91,1.91,0,0,0-.32.16l-.25.16h-.05V95.9a3.54,3.54,0,0,1,.69-.25,3.58,3.58,0,0,1,.83-.11,2.84,2.84,0,0,1,.69.08,1.85,1.85,0,0,1,.53.25,1.32,1.32,0,0,1,.39.46,1.38,1.38,0,0,1,.13.62,1.24,1.24,0,0,1-.31.85,1.44,1.44,0,0,1-.76.47v0a2.54,2.54,0,0,1,.39.13,1.19,1.19,0,0,1,.68.69,1.52,1.52,0,0,1,.12.64,2,2,0,0,1-.14.74,1.88,1.88,0,0,1-.38.58,1.6,1.6,0,0,1-.61.41,2.35,2.35,0,0,1-.82.14,3.7,3.7,0,0,1-.87-.11,3.52,3.52,0,0,1-.72-.26v-.83h0a3.17,3.17,0,0,0,.67.35,2.19,2.19,0,0,0,.82.17,1.61,1.61,0,0,0,.48-.08.91.91,0,0,0,.4-.25,1.11,1.11,0,0,0,.24-.38,1.38,1.38,0,0,0,.08-.53,1.28,1.28,0,0,0-.09-.52.78.78,0,0,0-.26-.33.88.88,0,0,0-.38-.16,2.54,2.54,0,0,0-.49,0H60V98h.26a1.34,1.34,0,0,0,.85-.25,1,1,0,0,0,.25-1.11.8.8,0,0,0-.22-.26,1,1,0,0,0-.33-.14A2.33,2.33,0,0,0,60.4,96.22Z"/><path class="cls-1" d="M66.81,98.59a4.61,4.61,0,0,1-.45,2.32,1.56,1.56,0,0,1-1.41.74,1.51,1.51,0,0,1-1.41-.76,4.55,4.55,0,0,1-.45-2.29,4.46,4.46,0,0,1,.46-2.32,1.69,1.69,0,0,1,2.81,0A4.61,4.61,0,0,1,66.81,98.59Zm-1,1.79a2.72,2.72,0,0,0,.16-.74,10.26,10.26,0,0,0,0-1c0-.4,0-.75,0-1a2.81,2.81,0,0,0-.16-.74,1.11,1.11,0,0,0-.32-.45.91.91,0,0,0-.54-.16.9.9,0,0,0-.53.16,1,1,0,0,0-.33.46,2.8,2.8,0,0,0-.16.76c0,.3,0,.65,0,1s0,.75,0,1a3.22,3.22,0,0,0,.16.74,1,1,0,0,0,.33.46,1,1,0,0,0,1.08,0A1,1,0,0,0,65.81,100.38Z"/><line class="cls-5" x1="50" y1="34" x2="50" y2="45"/><line class="cls-5" x1="58" y1="34" x2="58" y2="45"/><line class="cls-5" x1="66" y1="34" x2="66" y2="45"/><line class="cls-5" x1="74" y1="34" x2="74" y2="45"/><line class="cls-5" x1="82" y1="34" x2="82" y2="45"/><line class="cls-5" x1="90" y1="34" x2="90" y2="45"/><line class="cls-5" x1="98" y1="34" x2="98" y2="45"/><line class="cls-5" x1="106" y1="34" x2="106" y2="45"/><line class="cls-5" x1="114" y1="34" x2="114" y2="45"/><line class="cls-5" x1="122" y1="34" x2="122" y2="45"/><line class="cls-5" x1="130" y1="34" x2="130" y2="45"/><path class="cls-1" d="M135,15a30,30,0,0,1,30,30v90a30,30,0,0,1-30,30H45a30,30,0,0,1-30-30V45A30,30,0,0,1,45,15h90m0-5H45A35,35,0,0,0,10,45v90a35,35,0,0,0,35,35h90a35,35,0,0,0,35-35V45a35,35,0,0,0-35-35Z"/></svg>