<svg id="Слой_1" data-name="Слой 1" xmlns="http://www.w3.org/2000/svg" viewBox="0 0 180 180"><defs><style>.cls-1,.cls-3,.cls-5{fill:none;stroke:#0071bc;stroke-miterlimit:10;}.cls-1{stroke-width:2px;}.cls-2,.cls-4{fill:#0071bc;}.cls-2,.cls-5{opacity:0.6;}.cls-5{stroke-width:4px;}</style></defs><title>icons</title><rect class="cls-1" x="55" y="35.1" width="12.73" height="38.18"/><rect class="cls-2" x="59.45" y="46.56" width="8.27" height="20.36"/><rect class="cls-2" x="78.55" y="46.56" width="8.27" height="20.36"/><rect class="cls-2" x="97.64" y="46.56" width="8.27" height="20.36"/><rect class="cls-2" x="116.73" y="46.56" width="8.27" height="20.36"/><rect class="cls-1" x="74.09" y="35.1" width="12.73" height="38.18"/><rect class="cls-1" x="93.18" y="35.1" width="12.73" height="38.18"/><rect class="cls-1" x="112.27" y="35.1" width="12.73" height="38.18"/><rect class="cls-3" x="55" y="35.1" width="12.73" height="5.09"/><rect class="cls-3" x="74.09" y="35.1" width="12.73" height="5.09"/><rect class="cls-3" x="93.18" y="35.1" width="12.73" height="5.09"/><rect class="cls-3" x="112.27" y="35.1" width="12.73" height="5.09"/><rect class="cls-3" x="60.25" y="31.29" width="2.23" height="3.34"/><rect class="cls-3" x="79.34" y="31.29" width="2.23" height="3.34"/><rect class="cls-3" x="98.43" y="31.29" width="2.23" height="3.34"/><rect class="cls-3" x="117.52" y="31.29" width="2.23" height="3.34"/><path class="cls-4" d="M98.73,86.7H82V84.28H98.73Zm0,6.36H82V90.63H98.73Z"/><path class="cls-4" d="M80,143.08H77v8.72H73.7v-8.72H62.5V139.5l11.34-13H77v13.91h3Zm-6.28-2.72v-9.91l-8.54,9.91Z"/><path class="cls-4" d="M98.47,139.11q0,6.82-2,10a7.45,7.45,0,0,1-12.27-.06c-1.3-2.17-2-5.47-2-9.92s.66-7.92,2-10a6.71,6.71,0,0,1,6.12-3.17,6.62,6.62,0,0,1,6.14,3.28Q98.48,132.51,98.47,139.11Zm-4.36,7.73a12.57,12.57,0,0,0,.7-3.18,51.52,51.52,0,0,0,0-9.07,12.43,12.43,0,0,0-.72-3.21,4.37,4.37,0,0,0-1.4-2,3.76,3.76,0,0,0-2.32-.67,3.81,3.81,0,0,0-2.33.67,4.55,4.55,0,0,0-1.44,2,12,12,0,0,0-.69,3.27c-.13,1.31-.19,2.8-.19,4.46s0,3.25.16,4.44a11.67,11.67,0,0,0,.71,3.2,4.47,4.47,0,0,0,1.4,2,4.37,4.37,0,0,0,4.7,0A4.3,4.3,0,0,0,94.11,146.84Z"/><path class="cls-4" d="M117.5,139.11q0,6.82-2,10a7.45,7.45,0,0,1-12.27-.06c-1.3-2.17-2-5.47-2-9.92s.67-7.92,2-10a6.71,6.71,0,0,1,6.12-3.17,6.62,6.62,0,0,1,6.14,3.28Q117.51,132.51,117.5,139.11Zm-4.36,7.73a12.57,12.57,0,0,0,.7-3.18,51.52,51.52,0,0,0,0-9.07,12.47,12.47,0,0,0-.71-3.21,4.46,4.46,0,0,0-1.41-2,3.74,3.74,0,0,0-2.32-.67,3.83,3.83,0,0,0-2.33.67,4.46,4.46,0,0,0-1.43,2,11.57,11.57,0,0,0-.7,3.27c-.13,1.31-.19,2.8-.19,4.46s0,3.25.16,4.44a12,12,0,0,0,.71,3.2,4.55,4.55,0,0,0,1.4,2,4.37,4.37,0,0,0,4.7,0A4.3,4.3,0,0,0,113.14,146.84Z"/><path class="cls-5" d="M129.5,162V128c-.5-7.5-7.5-13-13-13h-14a1,1,0,0,1-1-1v-4a1,1,0,0,1,1-1h0a1,1,0,0,0,1-1v-6a1,1,0,0,0-1-1h-25a1,1,0,0,0-1,1v6a1,1,0,0,0,1,1h0a1,1,0,0,1,1,1v4a1,1,0,0,1-1,1h-14c-5.5,0-12.5,5.5-13,13v34"/><path class="cls-4" d="M90,10A80,80,0,1,1,10,90,80.09,80.09,0,0,1,90,10m0-5a85,85,0,1,0,85,85A85,85,0,0,0,90,5Z"/></svg>