<svg id="Слой_1" data-name="Слой 1" xmlns="http://www.w3.org/2000/svg" viewBox="0 0 180 180"><defs><style>.cls-1,.cls-3{fill:#0071bc;}.cls-2{fill:none;stroke:#0071bc;stroke-miterlimit:10;stroke-width:2px;}.cls-3{opacity:0.6;}</style></defs><title>icons</title><path class="cls-1" d="M90,5a85,85,0,1,0,85,85A85,85,0,0,0,90,5Zm0,165a80,80,0,1,1,80-80A80,80,0,0,1,90,170Z"/><polygon class="cls-2" points="125 102 111 116 55 116 55 27 125 27 125 102"/><circle class="cls-1" cx="90" cy="42.5" r="7.5"/><polygon class="cls-3" points="111 116 111 102 125 102 111 116"/><rect class="cls-3" x="70" y="58" width="40" height="8"/><rect class="cls-3" x="60" y="73" width="60" height="3"/><rect class="cls-3" x="60" y="78" width="60" height="3"/><rect class="cls-3" x="60" y="83" width="60" height="3"/><rect class="cls-3" x="60" y="88" width="30" height="3"/><rect class="cls-3" x="60" y="103" width="15" height="4"/><polyline class="cls-2" points="111 116 111 102 125 102"/><path class="cls-1" d="M71.47,139.67h-7.8V138h2.9V127.31h-2.9v-1.46a4.86,4.86,0,0,0,2.42-.46,2.12,2.12,0,0,0,.88-1.77h1.66V138h2.84Z"/><path class="cls-1" d="M84.37,131.66c0,2.88-.42,5-1.25,6.33a4.7,4.7,0,0,1-7.74,0,12.49,12.49,0,0,1-1.24-6.26q0-4.33,1.26-6.34a4.7,4.7,0,0,1,7.74.07A12.52,12.52,0,0,1,84.37,131.66Zm-2.75,4.88a7.53,7.53,0,0,0,.44-2,31.52,31.52,0,0,0,0-5.72,7.21,7.21,0,0,0-.45-2,2.67,2.67,0,0,0-.89-1.24,2.3,2.3,0,0,0-1.46-.43,2.35,2.35,0,0,0-1.47.43,2.86,2.86,0,0,0-.91,1.26,7.85,7.85,0,0,0-.44,2.06c-.08.83-.11,1.77-.11,2.82s0,2.05.1,2.8a7.59,7.59,0,0,0,.44,2,2.88,2.88,0,0,0,.89,1.27,2.71,2.71,0,0,0,3,0A2.63,2.63,0,0,0,81.62,136.54Z"/><path class="cls-1" d="M96.38,131.66c0,2.88-.42,5-1.25,6.33a4.7,4.7,0,0,1-7.74,0,12.49,12.49,0,0,1-1.24-6.26q0-4.33,1.26-6.34a4.7,4.7,0,0,1,7.74.07A12.52,12.52,0,0,1,96.38,131.66Zm-2.75,4.88a7.53,7.53,0,0,0,.44-2,31.52,31.52,0,0,0,0-5.72,7.58,7.58,0,0,0-.45-2,2.67,2.67,0,0,0-.89-1.24,2.3,2.3,0,0,0-1.46-.43,2.35,2.35,0,0,0-1.47.43,2.86,2.86,0,0,0-.91,1.26,7.85,7.85,0,0,0-.44,2.06q-.12,1.24-.12,2.82c0,1.11,0,2.05.11,2.8a7.22,7.22,0,0,0,.44,2,2.88,2.88,0,0,0,.89,1.27,2.71,2.71,0,0,0,3,0A2.63,2.63,0,0,0,93.63,136.54Z"/><path class="cls-1" d="M105.94,128.11a5.51,5.51,0,0,1-1,3.58,4,4,0,0,1-5.64,0,5.53,5.53,0,0,1-1-3.55,5.45,5.45,0,0,1,1-3.58,3.46,3.46,0,0,1,2.81-1.17,3.42,3.42,0,0,1,2.83,1.18A5.64,5.64,0,0,1,105.94,128.11Zm-1.91,0a6.28,6.28,0,0,0-.38-2.47,1.48,1.48,0,0,0-1.49-.84,1.46,1.46,0,0,0-1.49.85,6.11,6.11,0,0,0-.39,2.47,6.36,6.36,0,0,0,.37,2.46,1.75,1.75,0,0,0,3,0A6.35,6.35,0,0,0,104,128.11Zm9.07-4.44-8.38,16h-1.78l8.38-16Zm4.55,11.56a5.49,5.49,0,0,1-1,3.58,4,4,0,0,1-5.64,0,5.58,5.58,0,0,1-1-3.56,5.52,5.52,0,0,1,1-3.58,3.48,3.48,0,0,1,2.82-1.17,3.42,3.42,0,0,1,2.82,1.18A5.58,5.58,0,0,1,117.65,135.23Zm-1.91,0a6.28,6.28,0,0,0-.38-2.47,1.74,1.74,0,0,0-3,0,6.14,6.14,0,0,0-.39,2.47,6.51,6.51,0,0,0,.36,2.46,1.76,1.76,0,0,0,3,0A6.32,6.32,0,0,0,115.74,135.23Z"/><path class="cls-1" d="M63.5,148.23H59.42v7.44H58v-8.73H63.5Z"/><path class="cls-1" d="M69.47,154.74l-.48.37a4.08,4.08,0,0,1-.58.38,4.68,4.68,0,0,1-.76.31,3.8,3.8,0,0,1-1,.11,2.69,2.69,0,0,1-1-.2,2.76,2.76,0,0,1-.85-.57,2.6,2.6,0,0,1-.56-.89,2.78,2.78,0,0,1-.22-1.11,2.92,2.92,0,0,1,.39-1.55,2.62,2.62,0,0,1,1.21-1,6,6,0,0,1,1.73-.46c.67-.09,1.39-.15,2.16-.2v-.28a1.81,1.81,0,0,0-.16-.83,1.21,1.21,0,0,0-.43-.49,1.76,1.76,0,0,0-.69-.24,7.58,7.58,0,0,0-.84-.05,5.6,5.6,0,0,0-1.19.15,8.17,8.17,0,0,0-1.38.44H64.7v-1.49a10.79,10.79,0,0,1,1.16-.26,8.46,8.46,0,0,1,1.5-.14,7.29,7.29,0,0,1,1.52.14,2.71,2.71,0,0,1,1.1.51,2.21,2.21,0,0,1,.72.93,3.78,3.78,0,0,1,.23,1.39v6H69.47Zm0-1.22V151.1l-1.33.13a6.72,6.72,0,0,0-1.29.23,2.37,2.37,0,0,0-1,.55,1.37,1.37,0,0,0-.38,1,1.44,1.44,0,0,0,.42,1.13,1.76,1.76,0,0,0,1.24.39,2.6,2.6,0,0,0,1.25-.3A5.46,5.46,0,0,0,69.47,153.52Z"/><path class="cls-1" d="M80.31,151.07a5.42,5.42,0,0,1-1,3.48,3.25,3.25,0,0,1-2.64,1.29,4.06,4.06,0,0,1-1.15-.15,4.54,4.54,0,0,1-1-.46v3.66H73V146.94h1.47v.91a5.67,5.67,0,0,1,1.22-.82,3.22,3.22,0,0,1,1.45-.33,2.69,2.69,0,0,1,2.34,1.19A5.4,5.4,0,0,1,80.31,151.07Zm-1.51.17a4.64,4.64,0,0,0-.48-2.32,1.65,1.65,0,0,0-1.55-.82,2.8,2.8,0,0,0-1.2.27,5.54,5.54,0,0,0-1.11.72V154a5.52,5.52,0,0,0,1,.39,4.37,4.37,0,0,0,.94.1,2.08,2.08,0,0,0,1.77-.84A3.92,3.92,0,0,0,78.8,151.24Z"/><path class="cls-1" d="M86.71,154.74l-.48.37a3.59,3.59,0,0,1-.58.38,4.34,4.34,0,0,1-.76.31,3.77,3.77,0,0,1-1,.11,2.54,2.54,0,0,1-2.44-1.66,3,3,0,0,1-.21-1.11,2.92,2.92,0,0,1,.38-1.55,2.62,2.62,0,0,1,1.21-1,6,6,0,0,1,1.73-.46c.67-.09,1.39-.15,2.16-.2v-.28a1.81,1.81,0,0,0-.16-.83,1.21,1.21,0,0,0-.43-.49,1.76,1.76,0,0,0-.69-.24,7.58,7.58,0,0,0-.84-.05,5.67,5.67,0,0,0-1.19.15,8.17,8.17,0,0,0-1.38.44h-.08v-1.49a11.39,11.39,0,0,1,1.16-.26,8.64,8.64,0,0,1,1.5-.14,7.22,7.22,0,0,1,1.52.14,2.82,2.82,0,0,1,1.11.51,2.27,2.27,0,0,1,.71.93,3.78,3.78,0,0,1,.23,1.39v6H86.71Zm0-1.22V151.1l-1.32.13a6.7,6.7,0,0,0-1.3.23,2.27,2.27,0,0,0-1,.55,1.34,1.34,0,0,0-.39,1,1.44,1.44,0,0,0,.42,1.13,1.79,1.79,0,0,0,1.24.39,2.66,2.66,0,0,0,1.26-.3A5.71,5.71,0,0,0,86.71,153.52Z"/><path class="cls-1" d="M97.13,155.67H95.66v-3.93h-4v3.93H90.23v-8.73H91.7v3.53h4v-3.53h1.47Z"/><path class="cls-1" d="M105.62,148.23h-3v7.44h-1.47v-7.44h-3v-1.29h7.41Z"/><path class="cls-1" d="M113.6,155.67h-1.45v-6.51L108,155.67h-1.33v-8.73h1.45v6.41l4.07-6.41h1.37Z"/><path class="cls-1" d="M122.05,155.67h-1.47v-3.46h-1.45l-2.59,3.46h-1.71l2.8-3.6a3.1,3.1,0,0,1-1.59-.95,2.69,2.69,0,0,1-.5-1.7,2.18,2.18,0,0,1,.28-1.13,2.65,2.65,0,0,1,.77-.83,3,3,0,0,1,1-.39,6,6,0,0,1,1.33-.13h3.14Zm-1.47-4.62v-2.94H119a4.27,4.27,0,0,0-.8.06,1.53,1.53,0,0,0-.56.21,1.12,1.12,0,0,0-.43.46,1.38,1.38,0,0,0-.14.63,2.25,2.25,0,0,0,.09.7,1.3,1.3,0,0,0,.36.5,1.44,1.44,0,0,0,.67.31,4.61,4.61,0,0,0,.86.07Z"/></svg>