<svg width="65" height="65" viewBox="0 0 65 65" fill="none" xmlns="http://www.w3.org/2000/svg">
<circle cx="32.5" cy="32.5" r="32.5" fill="url(#paint0_radial)"/>
<circle cx="32" cy="33" r="27" stroke="white" stroke-width="2"/>
<path d="M33.232 16C35.472 16 37.376 16.368 38.944 17.104C40.544 17.808 41.744 18.768 42.544 19.984C43.344 21.2 43.744 22.544 43.744 24.016C43.744 25.328 43.504 26.448 43.024 27.376C42.576 28.304 42.032 29.056 41.392 29.632C40.752 30.208 39.904 30.88 38.848 31.648C37.568 32.512 36.624 33.296 36.016 34C35.408 34.672 35.104 35.552 35.104 36.64V37.84H28.192V36.352C28.192 34.848 28.416 33.584 28.864 32.56C29.344 31.504 29.904 30.688 30.544 30.112C31.216 29.504 32.048 28.848 33.04 28.144C34 27.504 34.704 26.944 35.152 26.464C35.6 25.984 35.824 25.392 35.824 24.688C35.824 23.824 35.52 23.152 34.912 22.672C34.336 22.192 33.52 21.952 32.464 21.952C30.448 21.952 28.576 22.928 26.848 24.88L22 21.136C24.912 17.712 28.656 16 33.232 16ZM31.744 42.208C32.928 42.208 33.936 42.64 34.768 43.504C35.632 44.336 36.064 45.344 36.064 46.528C36.064 47.744 35.632 48.784 34.768 49.648C33.936 50.48 32.928 50.896 31.744 50.896C30.56 50.896 29.536 50.48 28.672 49.648C27.84 48.784 27.424 47.744 27.424 46.528C27.424 45.344 27.84 44.336 28.672 43.504C29.536 42.64 30.56 42.208 31.744 42.208Z" fill="#8C6500"/>
<defs>
<radialGradient id="paint0_radial" cx="0" cy="0" r="1" gradientUnits="userSpaceOnUse" gradientTransform="translate(32.5 32.5) rotate(90) scale(32.5)">
<stop stop-color="white"/>
<stop offset="1" stop-color="#FFC01E"/>
</radialGradient>
</defs>
</svg>
